<svg xmlns="http://www.w3.org/2000/svg" width="420" height="62" fill="none" xmlns:v="https://vecta.io/nano"><g fill="#fff"><path d="M108.541 56.881c0 1.914 1.331 3.246 3.245 3.246h7.323c.749 0 1.665-.166 2.33-.915.749-.749.916-1.664.916-2.33V37.325h43.024v19.556c0 1.914 1.331 3.246 3.245 3.246h7.324c1.914 0 3.328-1.248 3.328-3.245V5.119c0-.749-.333-1.581-.915-2.33a3.67 3.67 0 0 0-2.413-.915h-7.324c-1.914 0-3.245 1.332-3.245 3.246v19.556h-43.024V5.119c0-.666-.167-1.581-.916-2.33-.665-.749-1.581-.915-2.33-.915h-7.323c-1.914 0-3.245 1.332-3.245 3.246v51.762zm93.898.25c0 1.082.416 1.914 1.331 2.58.666.25 1.249.416 1.748.416h8.571c.333 0 .916-.166 1.748-.416a5.08 5.08 0 0 0 1.748-1.831l4.577-6.99 7.989-12.566 13.314-20.555c.25-.25.417-.25.666 0l21.387 33.121 2.83 4.244 1.747 2.746c.25.416.749 1.248 1.748 1.831.416.25.999.416 1.664.416h8.572c.499 0 1.082-.166 1.747-.416.916-.666 1.332-1.498 1.332-2.58-.083-.583-.25-1.165-.583-1.664L251.288 4.12c-.749-1.332-1.914-2.247-3.495-2.247h-7.989c-.666 0-1.248.166-1.748.499-.915.583-1.414 1.248-1.664 1.664l-33.371 51.346c-.249.583-.582 1.082-.582 1.748zM311.566 1.874c-1.914 0-3.245 1.331-3.245 3.246v51.762c0 1.914 1.331 3.246 3.245 3.246h7.323c.749 0 1.665-.166 2.33-.915.749-.749.916-1.664.916-2.33V5.119c0-.666-.167-1.581-.916-2.33-.665-.749-1.581-.915-2.33-.915h-7.323z"/><path d="M400.471 34.523h-50.68c-1.146 0-1.72.601-1.72 1.803v20.555c0 1.34.437 2.447 1.312 3.321s1.981 1.311 3.321 1.311h7.323c1.41 0 2.523-.45 3.339-1.35.862-.876 1.294-1.97 1.294-3.282v-6.852h37.975c5.58 0 9.871-1.513 12.875-4.54 2.993-3.017 4.49-7.32 4.49-12.908V17.935c0-5.589-1.497-9.892-4.49-12.908C412.506 2 408.214.487 402.635.487h-49.931c-1.34 0-2.447.437-3.321 1.311s-1.312 1.981-1.312 3.321v9.154c0 1.147.574 1.72 1.72 1.72h50.68c1.363 0 2.124.112 2.283.335.045.062.095.12.149.175.284.284.425 1.039.425 2.265v12.982c0 1.264-.15 2.041-.451 2.332s-1.106.442-2.406.442zm-49.626 2.774v19.584c0 1.239.62 1.859 1.859 1.859h7.323c.596 0 1.027-.15 1.293-.45.018-.02.037-.04.057-.059.339-.34.509-.789.509-1.349v-8.239a1.23 1.23 0 0 1 .007-.136c.004-.045.01-.09.019-.135a1.5 1.5 0 0 1 .033-.132c.014-.043.029-.086.046-.128a1.73 1.73 0 0 1 .058-.123 1.34 1.34 0 0 1 .07-.117c.026-.038.053-.074.081-.109s.06-.069.092-.101a1.19 1.19 0 0 1 .101-.091c.035-.029.071-.056.109-.081a1.42 1.42 0 0 1 .117-.07c.04-.021.081-.041.123-.058s.084-.033.128-.046.087-.024.132-.033.089-.015.135-.02a1.36 1.36 0 0 1 .136-.007h39.362c9.727 0 14.591-4.891 14.591-14.674V17.935c0-9.783-4.864-14.674-14.591-14.674h-49.931c-1.239 0-1.859.62-1.859 1.859v8.1h49.626c2.239 0 3.728.467 4.468 1.4.776.835 1.163 2.218 1.163 4.148v12.982c0 2.047-.432 3.489-1.296 4.325-.842.815-2.287 1.223-4.335 1.223h-49.626z" fill-rule="evenodd"/></g><path fill-rule="evenodd" d="M68.337 32.916H1.295c-.59 0-1.106-.399-1.254-.97a1.3 1.3 0 0 1 .623-1.458l4.914-2.737c2.866-1.596 5.005-4.237 5.973-7.371l3.702-12.002c1.242-4.026 4.963-6.772 9.176-6.772h20.477a9.6 9.6 0 0 1 9.172 6.773l3.694 12a12.55 12.55 0 0 0 5.993 7.33l5.179 2.82a1.27 1.27 0 0 1-.608 2.387zM34.812 60.395a23.6 23.6 0 0 1-23.591-23.596h23.596l23.597.009a23.6 23.6 0 0 1-23.601 23.586z" fill="color(display-p3 0.9961 0.8745 0.2667)"/></svg>